<?xml version="1.0" standalone="no"?>
<!DOCTYPE svg PUBLIC "-//W3C//DTD SVG 20010904//EN"
 "http://www.w3.org/TR/2001/REC-SVG-20010904/DTD/svg10.dtd">
<svg version="1.0" xmlns="http://www.w3.org/2000/svg"
 width="500.000000pt" height="500.000000pt" viewBox="0 0 500.000000 500.000000"
 preserveAspectRatio="xMidYMid meet">
<metadata>
Created by potrace 1.14, written by Peter Selinger 2001-2017
</metadata>
<g transform="translate(0.000000,500.000000) scale(0.100000,-0.100000)"
fill="#000000" stroke="none">
<path d="M2564 3927 c-106 -28 -190 -98 -240 -204 -64 -137 -52 -288 37 -465
37 -72 285 -487 307 -510 24 -28 61 -22 96 15 35 38 147 259 195 385 104 274
112 515 22 639 -35 49 -105 99 -173 125 -64 24 -179 31 -244 15z m199 -219
c67 -33 99 -116 77 -199 -17 -61 -46 -98 -94 -120 -141 -64 -287 60 -246 209
32 119 148 168 263 110z"/>
<path d="M1662 3361 c-106 -27 -290 -219 -396 -412 -36 -67 -89 -193 -102
-243 -7 -28 -6 -28 32 13 53 60 220 165 237 150 2 -2 10 1 18 8 8 6 26 14 39
17 14 2 43 8 65 13 47 11 167 10 210 -1 17 -4 41 -10 55 -13 34 -6 146 -59
155 -72 3 -6 10 -9 14 -7 3 3 22 -9 40 -25 19 -16 38 -29 42 -29 5 0 9 -7 9
-17 0 -9 3 -14 6 -10 8 8 34 -18 34 -33 0 -6 5 -8 10 -5 6 3 10 1 10 -4 0 -6
9 -22 21 -35 12 -13 19 -27 18 -29 -2 -3 5 -16 16 -29 49 -55 84 -165 90 -283
2 -27 3 -51 4 -53 2 -6 86 56 146 107 32 28 69 51 81 51 31 0 124 -76 124
-101 0 -11 -7 -33 -15 -49 -20 -39 -147 -145 -213 -177 l-53 -26 -37 19 c-47
23 -54 23 -58 1 -1 -10 -6 -26 -10 -35 -4 -9 -8 -23 -10 -31 -10 -51 -94 -176
-155 -231 -89 -81 -191 -138 -275 -154 -10 -2 -32 -8 -49 -12 -48 -12 -165
-11 -230 2 l-60 12 43 -38 c141 -126 380 -234 589 -265 460 -70 916 87 1181
405 102 123 191 296 234 455 25 94 34 279 19 386 -26 175 -104 359 -207 483
-86 104 -147 131 -192 83 -11 -12 -37 -69 -57 -126 -84 -240 -216 -459 -307
-507 -85 -44 -140 2 -489 416 -216 257 -311 350 -404 396 -77 38 -160 51 -223
35z"/>
</g>
</svg>
